<svg version="1" xmlns="http://www.w3.org/2000/svg" width="346.667" height="346.667" viewBox="0 0 260.000000 260.000000"><path d="M143 70v8.9l-8.7.3-8.8.3-.3 13.2-.3 13.3h18l.3 9.2.3 9.3 13.8.3 13.7.3v-19l9.3-.3 9.2-.3v-26l-9.2-.3-9.3-.3V61h-28v9zm20 8v9h19.1l-.3 5.7-.3 5.8-9.2.3-9.3.3V117h-12V99.1l-8.7-.3-8.8-.3-.3-5.8-.3-5.7H151V69h12v9z"/><path d="M47.2 102.6c-5.1 3.6-5.2 4.4-5.2 46.9 0 43.5.2 45 5.9 47.9 5.3 2.8 10.7 1.7 14.3-2.8 1.3-1.6 1.8-4 1.8-9.9V177h132v7c0 8.1 1.1 11 5 13.3 5.4 3.2 12.6 1.2 15.5-4.3 2.2-4.3 2.2-51.7 0-56-2.9-5.5-10.6-7.7-15.5-4.3-4.2 2.9-4.9 4.6-5 11v6.3l-45.2-.1c-24.9 0-44.6-.3-43.8-.6 5.6-2.1 6.8-8.7 2.4-12.2-2.5-1.9-4-2.1-20.6-2.1-18.1 0-20.9.5-23.5 3.9-1 1.3-1.2-1.8-1.3-15.2v-16.9l-3.1-2.9c-3.6-3.4-9.9-4-13.7-1.3zM69.4 149c1.7.7 1.5.9-1.6.9-3.6.1-3.8-.1-3.8-3.1v-3.2l1.6 2.2c.9 1.3 2.6 2.7 3.8 3.2z"/></svg>